<?xml version="1.0" encoding="UTF-8"?>
<svg width="88px" height="91px" viewBox="0 0 88 91" version="1.1" xmlns="http://www.w3.org/2000/svg" xmlns:xlink="http://www.w3.org/1999/xlink">
    <!-- Generator: sketchtool 58 (101010) - https://sketch.com -->
    <title>6FECA2E1-E17E-4D51-90BF-EAFF16449BDB</title>
    <desc>Created with sketchtool.</desc>
    <g id="PHX-2177" stroke="none" stroke-width="1" fill="none" fill-rule="evenodd" stroke-linecap="round" stroke-linejoin="round">
        <g id="service-large_cp" transform="translate(-480.000000, -801.000000)">
            <g id="Group-2-Copy" transform="translate(443.000000, 766.000000)">
                <g id="referal" transform="translate(37.000000, 38.000000)">
                    <path d="M79,47 L79,84 C79,86.209139 77.209139,88 75,88 L75,88 L12,88 C9.790861,88 8,86.209139 8,84 L8,84 L8,47 L40.999,47 L41,88 L45,88 L44.999,47 L79,47 Z" id="Combined-Shape" fill="#FFFFFF"></path>
                    <path d="M42,26 L42,42 L4,42 C1.85780461,42 0.108921124,40.3160315 0.00489530723,38.1996403 L0,38 L0,30.0001579 C-2.705415e-16,27.7910189 1.790861,26.0001579 4,26.0001579 L4,26.0001579 L42,26 Z M84,26.0001579 C86.209139,26.0001579 88,27.7910189 88,30.0001579 L88,30.0001579 L88,38 C88,40.209139 86.209139,42 84,42 L84,42 L47,42 L47,26 Z" id="Combined-Shape" fill="#FFFFFF"></path>
                    <g id="Group" transform="translate(18.857143, 0.000000)" stroke="#FFFFFF" stroke-width="6">
                        <path d="M45.432819,14.8550191 C39.1262855,21.1615525 25.1428571,25 25.1428571,25 C25.1428571,25 28.9813046,11.0165715 35.2878381,4.71003816 C41.5943716,-1.59649526 45.1673563,-0.627915044 47.9726514,2.17020558 C50.7707721,4.97550089 51.7393525,8.54848565 45.432819,14.8550191 L45.432819,14.8550191 Z" id="Stroke-9637"></path>
                        <path d="M4.85289527,14.8550191 C11.1594286,21.1615525 25.1428571,25 25.1428571,25 C25.1428571,25 21.3044094,11.0165715 14.9978761,4.71003816 C8.69134276,-1.59649526 5.11835797,-0.627915044 2.31306269,2.17020558 C-0.485057887,4.97550089 -1.4536381,8.54848565 4.85289527,14.8550191 L4.85289527,14.8550191 Z" id="Stroke-9638"></path>
                    </g>
                </g>
            </g>
        </g>
    </g>
</svg>