<?xml version="1.0" encoding="UTF-8"?>
<svg width="20px" height="21px" viewBox="0 0 20 21" version="1.1" xmlns="http://www.w3.org/2000/svg" xmlns:xlink="http://www.w3.org/1999/xlink">
    <!-- Generator: Sketch 56.2 (81672) - https://sketch.com -->
    <title>present</title>
    <desc>Created with Sketch.</desc>
    <g id="PHX-2124" stroke="none" stroke-width="1" fill="none" fill-rule="evenodd">
        <g id="Artboard">
            <g id="present" transform="translate(0.000000, 1.000000)">
                <path d="M9.52380952,10.4761905 L9.52380952,20 L2.9047619,20 C2.35247715,20 1.9047619,19.5522847 1.9047619,19 L1.9047619,10.4761905 L9.52380952,10.4761905 Z M10.4761905,10.4761905 L18.0952381,10.4761905 L18.0952381,19 C18.0952381,19.5522847 17.6475228,20 17.0952381,20 L10.4761905,20 L10.4761905,10.4761905 Z" id="Combined-Shape" fill="#333333" fill-rule="nonzero"></path>
                <path d="M9.47368421,5.71428571 L9.47368421,9.52380952 L1,9.52380952 C0.44771525,9.52380952 0,9.07609427 0,8.52380952 L0,6.71428571 C0,6.16200096 0.44771525,5.71428571 1,5.71428571 L9.47368421,5.71428571 Z M10.5263158,5.71428571 L19,5.71428571 C19.5522847,5.71428571 20,6.16200096 20,6.71428571 L20,8.52380952 C20,9.07609427 19.5522847,9.52380952 19,9.52380952 L10.5263158,9.52380952 L10.5263158,5.71428571 Z" id="Combined-Shape" fill="#333333" fill-rule="nonzero"></path>
                <g id="Group" transform="translate(4.285714, 0.000000)" stroke="#333333">
                    <path d="M10.3519913,3.39543293 C8.91049791,4.83692628 5.71428571,5.71428571 5.71428571,5.71428571 C5.71428571,5.71428571 6.59164513,2.5180735 8.0331385,1.07658015 C9.47463187,-0.364913202 10.2913141,-0.143523439 10.9325244,0.49604699 C11.5720949,1.13725735 11.7934847,1.95393958 10.3519913,3.39543293 L10.3519913,3.39543293 Z" id="Stroke-9637"></path>
                    <path d="M1.07658014,3.39543293 C2.51807348,4.83692628 5.71428571,5.71428571 5.71428571,5.71428571 C5.71428571,5.71428571 4.83692623,2.5180735 3.39543291,1.07658015 C1.95393957,-0.364913202 1.13725733,-0.143523439 0.496046982,0.49604699 C-0.143523435,1.13725735 -0.364913199,1.95393958 1.07658014,3.39543293 L1.07658014,3.39543293 Z" id="Stroke-9638"></path>
                </g>
            </g>
        </g>
    </g>
</svg>